<svg width="81" height="81" viewBox="0 0 81 81" version="1.1" xmlns="http://www.w3.org/2000/svg" xmlns:xlink="http://www.w3.org/1999/xlink" xmlns:figma="http://www.figma.com/figma/ns">
<title>github</title>
<desc>Created using Figma</desc>
<g id="Canvas" transform="translate(-1623 353)" figma:type="canvas">
<g id="github" figma:type="frame">
<g id="Vector" figma:type="vector">
<use xlink:href="#path0_fill" transform="translate(1623 -353)" fill="#F76060"/>
</g>
</g>
</g>
<defs>
<path id="path0_fill" d="M 81 41.5143C 81 50.5596 78.4248 58.6948 73.2744 65.9202C 68.124 73.1456 61.4707 78.1457 53.3145 80.9205C 52.3652 81.1007 51.6709 80.9746 51.2314 80.5421C 50.792 80.1097 50.5723 79.5691 50.5723 78.9205L 50.5723 67.5148C 50.5723 64.0193 49.6582 61.4607 47.8301 59.839C 49.834 59.6228 51.6357 59.2985 53.2354 58.866C 54.835 58.4336 56.4873 57.7309 58.1924 56.7579C 59.8975 55.7849 61.3213 54.5867 62.4639 53.1632C 63.6064 51.7398 64.5381 49.8478 65.2588 47.4874C 65.9795 45.127 66.3398 42.4152 66.3398 39.3521C 66.3398 34.9917 64.9512 31.2799 62.1738 28.2168C 63.4746 24.9374 63.334 21.2617 61.752 17.1895C 60.7676 16.8652 59.3438 17.0634 57.4805 17.7841C 55.6172 18.5049 54 19.2977 52.6289 20.1626L 50.625 21.4599C 47.3555 20.5229 43.9805 20.0544 40.5 20.0544C 37.0195 20.0544 33.6445 20.5229 30.375 21.4599C 29.8125 21.0635 29.0654 20.577 28.1338 20.0004C 27.2021 19.4238 25.7344 18.7301 23.7305 17.9193C 21.7266 17.1084 20.2148 16.8652 19.1953 17.1895C 17.6484 21.2617 17.5254 24.9374 18.8262 28.2168C 16.0488 31.2799 14.6602 34.9917 14.6602 39.3521C 14.6602 42.4152 15.0205 45.118 15.7412 47.4604C 16.4619 49.8028 17.3848 51.6947 18.5098 53.1362C 19.6348 54.5776 21.0498 55.7849 22.7549 56.7579C 24.46 57.7309 26.1123 58.4336 27.7119 58.866C 29.3115 59.2985 31.1133 59.6228 33.1172 59.839C 31.7109 61.1363 30.8496 62.9922 30.5332 65.4067C 29.7949 65.7671 29.0039 66.0373 28.1602 66.2175C 27.3164 66.3977 26.3145 66.4878 25.1543 66.4878C 23.9941 66.4878 22.8428 66.1004 21.7002 65.3256C 20.5576 64.5508 19.582 63.4247 18.7734 61.9472C 18.1055 60.794 17.2529 59.857 16.2158 59.1363C 15.1787 58.4156 14.3086 57.9831 13.6055 57.839L 12.5508 57.6768C 11.8125 57.6768 11.3027 57.7579 11.0215 57.9201C 10.7402 58.0822 10.6523 58.2894 10.7578 58.5417C 10.8633 58.7939 11.0215 59.0462 11.2324 59.2985C 11.4434 59.5507 11.6719 59.7669 11.918 59.9471L 12.2871 60.2174C 13.0605 60.5778 13.8252 61.2625 14.5811 62.2715C 15.3369 63.2805 15.8906 64.1995 16.2422 65.0283L 16.7695 66.2716C 17.2266 67.641 18 68.7491 19.0898 69.596C 20.1797 70.4428 21.3574 70.9834 22.623 71.2176C 23.8887 71.4519 25.1104 71.578 26.2881 71.596C 27.4658 71.614 28.4414 71.551 29.2148 71.4068L 30.4277 71.1906C 30.4277 72.56 30.4365 74.1636 30.4541 76.0015C 30.4717 77.8394 30.4805 78.8124 30.4805 78.9205C 30.4805 79.5691 30.252 80.1097 29.7949 80.5421C 29.3379 80.9746 28.6348 81.1007 27.6855 80.9205C 19.5293 78.1457 12.876 73.1456 7.72559 65.9202C 2.5752 58.6948 0 50.5596 0 41.5143C 0 33.9827 1.81055 27.0366 5.43164 20.6761C 9.05273 14.3156 13.9658 9.27946 20.1709 5.56768C 26.376 1.85589 33.1523 0 40.5 0C 47.8477 0 54.624 1.85589 60.8291 5.56768C 67.0342 9.27946 71.9473 14.3156 75.5684 20.6761C 79.1895 27.0366 81 33.9827 81 41.5143Z"/>
</defs>
</svg>
