<svg width="81" height="81" viewBox="0 0 81 81" version="1.1" xmlns="http://www.w3.org/2000/svg" xmlns:xlink="http://www.w3.org/1999/xlink" xmlns:figma="http://www.figma.com/figma/ns">
<title>Group</title>
<desc>Created using Figma</desc>
<g id="Canvas" transform="translate(-1954 350)" figma:type="canvas">
<g id="Group" figma:type="frame">
<g id="Ellipse" figma:type="ellipse">
<use xlink:href="#path0_fill" transform="matrix(0.999853 -0.0171608 0.017749 0.999842 1954 -348.634)" fill="#F76060"/>
</g>
<g id="1492854354_icon-86-document-list" figma:type="frame">
<g id="g" figma:type="frame">
<g id="g" figma:type="frame">
<g id="path" figma:type="vector">
<use xlink:href="#path1_fill" transform="translate(1975 -330)" fill="#FFFFFF"/>
</g>
</g>
</g>
</g>
</g>
</g>
<defs>
<path id="path0_fill" d="M 79.5985 39.8231C 79.5985 61.8168 61.7798 79.6462 39.7993 79.6462C 17.8187 79.6462 0 61.8168 0 39.8231C 0 17.8294 17.8187 0 39.7993 0C 61.7798 0 79.5985 17.8294 79.5985 39.8231Z"/>
<path id="path1_fill" fill-rule="evenodd" d="M 25.5789 0L 4.28134 0C 1.91682 0 0 2.02958 0 4.53508L 0 56.4649C 0 58.9696 1.89908 61 4.25766 61L 36.2423 61C 38.5938 61 40.5 58.9872 40.5 56.4873L 40.5 18.0741L 29.8547 18.0741C 27.4933 18.0741 25.5789 16.0708 25.5789 13.5598L 25.5789 0ZM 27.7105 0L 27.7105 13.5489C 27.7105 14.8003 28.6718 15.8148 29.8224 15.8148L 40.5 15.8148L 27.7105 0ZM 17.0526 24.8519L 17.0526 27.1111L 34.1053 27.1111L 34.1053 24.8519L 17.0526 24.8519ZM 6.39474 22.5926L 6.39474 29.3704L 12.7895 29.3704L 12.7895 22.5926L 6.39474 22.5926ZM 8.52632 24.8519L 8.52632 27.1111L 10.6579 27.1111L 10.6579 24.8519L 8.52632 24.8519ZM 6.39474 33.8889L 6.39474 40.6667L 12.7895 40.6667L 12.7895 33.8889L 6.39474 33.8889ZM 8.52632 36.1481L 8.52632 38.4074L 10.6579 38.4074L 10.6579 36.1481L 8.52632 36.1481ZM 17.0526 36.1481L 17.0526 38.4074L 34.1053 38.4074L 34.1053 36.1481L 17.0526 36.1481ZM 6.39474 45.1852L 6.39474 51.963L 12.7895 51.963L 12.7895 45.1852L 6.39474 45.1852ZM 8.52632 47.4444L 8.52632 49.7037L 10.6579 49.7037L 10.6579 47.4444L 8.52632 47.4444ZM 17.0526 47.4444L 17.0526 49.7037L 34.1053 49.7037L 34.1053 47.4444L 17.0526 47.4444Z"/>
</defs>
</svg>
