<svg width="79" height="69" viewBox="0 0 79 69" version="1.1" xmlns="http://www.w3.org/2000/svg" xmlns:xlink="http://www.w3.org/1999/xlink" xmlns:figma="http://www.figma.com/figma/ns">
<title>1492854233_03-twitter</title>
<desc>Created using Figma</desc>
<g id="Canvas" transform="translate(-1420 341)" figma:type="canvas">
<g id="1492854233_03-twitter" figma:type="frame">
<g id="Vector" figma:type="vector">
<use xlink:href="#path0_fill" transform="translate(1420 -341)" fill="#F76060"/>
</g>
</g>
</g>
<defs>
<path id="path0_fill" d="M 79 8.16783C 76.0958 9.55528 72.9703 10.4912 69.6909 10.91C 73.0393 8.75556 75.6067 5.34296 76.8175 1.27197C 73.6855 3.26955 70.2185 4.71904 66.5253 5.50152C 63.5698 2.1165 59.357 3.68187e-07 54.6953 3.68187e-07C 45.7454 3.68187e-07 38.4889 7.799 38.4889 17.4198C 38.4889 18.7831 38.6316 20.1119 38.9091 21.3891C 25.4385 20.6617 13.4946 13.728 5.50048 3.18854C 4.10531 5.76005 3.3067 8.75211 3.3067 11.9475C 3.3067 17.9903 6.16759 23.3229 10.5167 26.4459C 7.86103 26.3546 5.36096 25.5704 3.1752 24.2656C 3.1736 24.338 3.1736 24.4122 3.1736 24.4863C 3.1736 32.9247 8.76067 39.9636 16.1759 41.5665C 14.816 41.9629 13.384 42.1766 11.9054 42.1766C 10.8598 42.1766 9.84473 42.068 8.85529 41.8629C 10.9192 48.7829 16.9039 53.8208 23.9952 53.9604C 18.4482 58.6329 11.4612 61.4182 3.86637 61.4182C 2.55941 61.4182 1.26848 61.3354 -1.89639e-07 61.1734C 7.17467 66.1182 15.6932 69 24.8452 69C 54.6584 69 70.9594 42.4576 70.9594 19.438C 70.9594 18.6831 70.9449 17.9299 70.9145 17.1819C 74.08 14.7311 76.8287 11.6614 79 8.16783Z"/>
</defs>
</svg>
