<svg width="81" height="81" viewBox="0 0 81 81" version="1.1" xmlns="http://www.w3.org/2000/svg" xmlns:xlink="http://www.w3.org/1999/xlink" xmlns:figma="http://www.figma.com/figma/ns">
<title>TW</title>
<desc>Created using Figma</desc>
<g id="Canvas" transform="translate(-1300 351)" figma:type="canvas">
<g id="TW" figma:type="frame">
<g id="Ellipse" figma:type="ellipse">
<use xlink:href="#path0_fill" transform="matrix(0.999858 -0.016879 0.0180453 0.999837 1300 -349.632)" fill="#F76060"/>
</g>
<g id="Vector" figma:type="vector">
<use xlink:href="#path1_fill" transform="matrix(1 0 0 1 1309.82 -325.427)" fill="#FFFFFF"/>
</g>
</g>
</g>
<defs>
<path id="path0_fill" d="M 79.5741 39.8347C 79.5741 61.8348 61.7609 79.6694 39.7871 79.6694C 17.8133 79.6694 0 61.8348 0 39.8347C 0 17.8346 17.8133 0 39.7871 0C 61.7609 0 79.5741 17.8346 79.5741 39.8347Z"/>
<path id="path1_fill" d="M 60.9086 6.40364C 58.6695 7.49141 56.2597 8.22515 53.7313 8.55351C 56.3129 6.86442 58.2923 4.18892 59.2258 0.997233C 56.8111 2.56335 54.1381 3.69976 51.2906 4.31324C 49.012 1.65935 45.764 0 42.1698 0C 35.2694 0 29.6747 6.11447 29.6747 13.6572C 29.6747 14.7261 29.7848 15.7679 29.9987 16.7692C 19.6129 16.199 10.4043 10.7628 4.24084 2.49984C 3.16517 4.51593 2.54945 6.86172 2.54945 9.36697C 2.54945 14.1045 4.75518 18.2853 8.10828 20.7338C 6.06081 20.6622 4.13327 20.0474 2.44806 19.0245C 2.44683 19.0812 2.44683 19.1393 2.44683 19.1974C 2.44683 25.8132 6.75443 31.3318 12.4715 32.5885C 11.4231 32.8992 10.319 33.0668 9.179 33.0668C 8.37287 33.0668 7.59023 32.9817 6.82738 32.8209C 8.41862 38.2462 13.0328 42.1959 18.5002 42.3054C 14.2235 45.9687 8.83652 48.1523 2.98095 48.1523C 1.97329 48.1523 0.977989 48.0875 0 47.9604C 5.53163 51.8372 12.0994 54.0965 19.1555 54.0965C 42.1413 54.0965 54.7093 33.2871 54.7093 15.2396C 54.7093 14.6477 54.6981 14.0572 54.6747 13.4708C 57.1153 11.5493 59.2345 9.14266 60.9086 6.40364Z"/>
</defs>
</svg>
